# xmcd CD database file
#
# Track frame offsets:
#	150
#	19605
#	32137
#	53755
#	68232
#	87072
#	105555
#	126495
#	144132
#	161885
#	186065
#	194295
#	211187
#
# Disc length: 3089 seconds
#
# Revision: 2
# Processed by: cddbd v1.5.1PL0 Copyright (c) Steve Scherf et al.
# Submitted via: CDex 1.51
#
DISCID=ad0c0f0d
DTITLE=Luxuria - Beast Box
DYEAR=1900
DGENRE=
TTITLE0=The Beast Is Dreaming
TTITLE1=Stupid Blood
TTITLE2=Against The Past
TTITLE3=Our Curious Leader
TTITLE4=We Keep On Getting There
TTITLE5=Ticket
TTITLE6=Anumal In The Mirror
TTITLE7=Dirty Beating Heart
TTITLE8=Smoking Mirror
TTITLE9=I've Been Expecting You
TTITLE10=Karezza
TTITLE11=Beast Box
TTITLE12=Jezebel
EXTD=
EXTT0=
EXTT1=
EXTT2=
EXTT3=
EXTT4=
EXTT5=
EXTT6=
EXTT7=
EXTT8=
EXTT9=
EXTT10=
EXTT11=
EXTT12=
PLAYORDER=
